<svg aria-hidden="true" style="position: absolute; width: 0; height: 0; overflow: hidden;" version="1.1" xmlns="http://www.w3.org/2000/svg" xmlns:xlink="http://www.w3.org/1999/xlink">
<defs>
<symbol id="tiktok" viewBox="0 0 32 32">
<path fill="#fff" style="fill: var(--color1, #fff)" d="M21.333 10.993v9.673c-0 1.8-0.561 3.555-1.605 5.022s-2.518 2.572-4.218 3.163-3.543 0.637-5.271 0.133c-1.728-0.504-3.256-1.534-4.372-2.946s-1.765-3.137-1.856-4.935c-0.091-1.798 0.38-3.579 1.347-5.097s2.384-2.697 4.052-3.374c1.668-0.676 3.505-0.817 5.257-0.401v4.217c-0.914-0.433-1.943-0.558-2.934-0.356s-1.889 0.721-2.559 1.478c-0.67 0.757-1.077 1.711-1.158 2.719s0.167 2.015 0.707 2.869 1.344 1.511 2.289 1.869c0.945 0.359 1.982 0.401 2.953 0.119s1.825-0.87 2.432-1.679c0.608-0.808 0.936-1.792 0.936-2.803v-18h4c0 1.768 0.702 3.464 1.953 4.714s2.946 1.953 4.714 1.953v4c-2.424 0.004-4.777-0.822-6.667-2.34z"></path>
</symbol>
<symbol id="youtube" viewBox="0 0 32 32">
<path fill="#fff" style="fill: var(--color1, #fff)" d="M16.325 5.333c0.712 0.004 2.493 0.021 4.387 0.097l0.672 0.029c1.905 0.089 3.809 0.244 4.755 0.507 1.26 0.355 2.249 1.387 2.584 2.696 0.533 2.080 0.6 6.136 0.608 7.119l0.001 0.203v0.232c-0.009 0.983-0.076 5.040-0.609 7.119-0.339 1.313-1.329 2.347-2.584 2.696-0.945 0.263-2.849 0.417-4.755 0.507l-0.672 0.031c-1.893 0.075-3.675 0.093-4.387 0.096l-0.313 0.001h-0.34c-1.507-0.009-7.808-0.077-9.813-0.635-1.259-0.355-2.249-1.387-2.584-2.696-0.533-2.080-0.6-6.136-0.608-7.119v-0.435c0.008-0.983 0.075-5.040 0.608-7.119 0.339-1.313 1.329-2.347 2.585-2.695 2.004-0.559 8.307-0.627 9.813-0.635h0.652zM13.332 11.333v9.333l8-4.667-8-4.667z"></path>
</symbol>
<symbol id="facebook" viewBox="0 0 32 32">
<path fill="#fff" style="fill: var(--color1, #fff)" d="M21.329 5.313h2.921v-5.088c-0.504-0.069-2.237-0.225-4.256-0.225-4.212 0-7.097 2.649-7.097 7.519v4.481h-4.648v5.688h4.648v14.312h5.699v-14.311h4.46l0.708-5.688h-5.169v-3.919c0.001-1.644 0.444-2.769 2.735-2.769z"></path>
</symbol>
<symbol id="instagram" viewBox="0 0 32 32">
<path fill="#fff" style="fill: var(--color1, #fff)" d="M17.371 2.668c0.973-0.004 1.946 0.006 2.919 0.029l0.259 0.009c0.299 0.011 0.593 0.024 0.949 0.040 1.419 0.067 2.387 0.291 3.236 0.62 0.88 0.339 1.621 0.797 2.363 1.539 0.678 0.666 1.202 1.472 1.537 2.361 0.329 0.849 0.553 1.819 0.62 3.237 0.016 0.355 0.029 0.651 0.040 0.949l0.008 0.259c0.024 0.972 0.034 1.945 0.031 2.917l0.001 0.995v1.747c0.003 0.973-0.007 1.946-0.031 2.919l-0.008 0.259c-0.011 0.299-0.024 0.593-0.040 0.949-0.067 1.419-0.293 2.387-0.621 3.236-0.334 0.89-0.858 1.697-1.537 2.363-0.667 0.678-1.473 1.202-2.363 1.537-0.849 0.329-1.817 0.553-3.236 0.62-0.356 0.016-0.651 0.029-0.949 0.040l-0.259 0.008c-0.973 0.024-1.946 0.034-2.919 0.031l-2.74 0.001c-0.973 0.003-1.946-0.007-2.919-0.031l-0.259-0.008c-0.317-0.012-0.633-0.025-0.949-0.040-1.419-0.067-2.387-0.293-3.237-0.621-0.89-0.334-1.696-0.859-2.361-1.537-0.679-0.666-1.204-1.472-1.539-2.363-0.329-0.849-0.553-1.817-0.62-3.236-0.015-0.316-0.028-0.633-0.040-0.949l-0.007-0.259c-0.025-0.973-0.036-1.946-0.033-2.919v-2.741c-0.004-0.973 0.006-1.945 0.029-2.917l0.009-0.259c0.011-0.299 0.024-0.595 0.040-0.949 0.067-1.42 0.291-2.387 0.62-3.237 0.335-0.89 0.861-1.695 1.541-2.36 0.665-0.679 1.471-1.205 2.36-1.54 0.851-0.329 1.817-0.553 3.237-0.62l0.949-0.040 0.259-0.007c0.972-0.025 1.945-0.036 2.917-0.033l2.741 0.001zM16 9.335c-0.883-0.012-1.76 0.151-2.58 0.48s-1.566 0.818-2.195 1.439c-0.629 0.62-1.129 1.359-1.47 2.174s-0.517 1.69-0.517 2.573c0 0.883 0.176 1.758 0.517 2.573s0.84 1.554 1.47 2.174c0.629 0.62 1.375 1.109 2.195 1.439s1.697 0.493 2.58 0.48c1.768 0 3.464-0.702 4.714-1.953s1.953-2.946 1.953-4.714-0.702-3.464-1.953-4.714c-1.25-1.25-2.946-1.951-4.714-1.951zM16 12.001c0.531-0.010 1.059 0.086 1.553 0.283s0.943 0.489 1.323 0.862c0.379 0.372 0.681 0.816 0.886 1.306s0.312 1.016 0.312 1.548c0 0.531-0.106 1.058-0.311 1.548s-0.507 0.934-0.886 1.307c-0.379 0.372-0.829 0.666-1.322 0.862s-1.022 0.293-1.553 0.283c-1.061 0-2.078-0.421-2.828-1.172s-1.172-1.768-1.172-2.828c0-1.061 0.421-2.078 1.172-2.828s1.768-1.172 2.828-1.172l-0.001 0.001zM23 7.335c-0.43 0.017-0.837 0.2-1.135 0.511s-0.465 0.724-0.465 1.155 0.166 0.844 0.465 1.155c0.298 0.31 0.705 0.493 1.135 0.511 0.442 0 0.866-0.176 1.178-0.488s0.488-0.736 0.488-1.179c0-0.442-0.176-0.866-0.488-1.178s-0.736-0.488-1.178-0.488v0.003z"></path>
</symbol>
<symbol id="cat" viewBox="0 0 32 32">
<path fill="#000" style="fill: var(--color2, #000)" d="M2.555 10.693c0 0-0.474-8.812 1.441-9.253s5.218 2.721 5.218 2.721l-6.659 6.532z"></path>
<path fill="#000" style="fill: var(--color2, #000)" d="M20.642 4.376c0 0 3.535-3.52 6.040-2.934 2.504 0.586 0.591 7.545 0.591 7.545l-6.631-4.611z"></path>
<path fill="#f07f2e" style="fill: var(--color3, #f07f2e); stroke: var(--color2, #000)" stroke="#000" stroke-linejoin="miter" stroke-linecap="butt" stroke-miterlimit="10" stroke-width="0.5333" d="M27.558 26.809c-2.653 2.097-4.428 2.782-7.444 3.598-2.013 0.545-7.083 0.517-11.808-1.384-3.31-1.448-4.607-3.022-5.232-3.88-0.544-0.746-1.65-2.402-1.713-4.214-0.092-2.637-0.015-5.21 1.196-10.232 1.211-5.024 6.659-6.532 6.659-6.532 5.953-1.406 10.897-0.301 12.612 0s6.589 3.387 7.008 9.571c0.064 0.925 1.1 4.214 1.2 6.977 0.030 0.847 0.055 1.975-0.367 3.133-0.487 1.335-1.573 2.513-2.11 2.963z"></path>
<path fill="#000" style="fill: var(--color2, #000)" d="M11.149 14.33c0.042-0.079 0.090-0.155 0.142-0.23 0.025-0.036 0.050-0.071 0.075-0.107 0.014-0.019 0.030-0.039 0.044-0.057 0.034-0.048-0.076 0.092-0.006 0.008 0.072-0.087 0.145-0.171 0.226-0.25 0.042-0.042 0.086-0.082 0.131-0.121 0.016-0.014 0.095-0.077 0.033-0.029s0.028-0.019 0.048-0.033c0.050-0.034 0.103-0.067 0.157-0.095 0.026-0.014 0.055-0.026 0.083-0.040 0.055-0.028-0.098 0.031 0.009-0.002 0.059-0.019 0.118-0.033 0.178-0.047 0.079-0.020-0.101 0.003-0.019 0.003 0.036 0 0.072-0.005 0.109-0.003 0.033 0 0.065 0.006 0.097 0.006 0.059 0-0.095-0.026-0.039-0.005 0.012 0.005 0.030 0.005 0.044 0.009 0.034 0.009 0.069 0.017 0.101 0.028 0.014 0.005 0.030 0.011 0.044 0.015 0.092 0.026-0.053-0.034-0.008-0.003 0.076 0.051 0.165 0.090 0.243 0.141 0.016 0.011 0.031 0.022 0.047 0.034-0.075-0.057 0 0.001 0.014 0.015 0.042 0.039 0.086 0.076 0.126 0.116 0.209 0.208 0.337 0.389 0.495 0.645 0.133 0.213 0.418 0.296 0.639 0.168 0.213-0.124 0.301-0.422 0.168-0.636-0.5-0.802-1.259-1.613-2.296-1.432-0.623 0.109-1.111 0.599-1.468 1.088-0.081 0.11-0.159 0.225-0.223 0.344-0.118 0.222-0.056 0.506 0.168 0.636 0.21 0.119 0.52 0.053 0.639-0.169z"></path>
<path fill="#000" style="fill: var(--color2, #000)" d="M24.801 13.665c0.041-0.076 0.087-0.149 0.136-0.22 0.023-0.034 0.047-0.068 0.072-0.102 0.014-0.019 0.028-0.037 0.041-0.056 0.034-0.047-0.078 0.095-0.008 0.012 0.069-0.082 0.139-0.163 0.217-0.239 0.041-0.040 0.083-0.079 0.126-0.115 0.015-0.014 0.093-0.076 0.030-0.026s0.023-0.017 0.044-0.030c0.048-0.033 0.098-0.064 0.15-0.092 0.026-0.014 0.053-0.026 0.078-0.039 0.055-0.028-0.103 0.033 0.005 0 0.056-0.017 0.114-0.031 0.171-0.045 0.078-0.019-0.104 0.005-0.023 0.003 0.034 0 0.069-0.005 0.104-0.003 0.031 0 0.062 0.006 0.093 0.006 0.059 0-0.098-0.026-0.044-0.005 0.012 0.005 0.028 0.005 0.041 0.008 0.033 0.009 0.065 0.017 0.097 0.026 0.014 0.005 0.028 0.011 0.042 0.014 0.090 0.026-0.056-0.036-0.013-0.006 0.073 0.050 0.157 0.085 0.232 0.137 0.016 0.011 0.030 0.022 0.044 0.033-0.079-0.060-0.006-0.003 0.009 0.011 0.040 0.037 0.083 0.073 0.121 0.112 0.204 0.203 0.313 0.362 0.472 0.614 0.132 0.213 0.417 0.296 0.639 0.168 0.213-0.124 0.301-0.422 0.168-0.636-0.485-0.776-1.218-1.556-2.222-1.381-0.603 0.105-1.072 0.579-1.418 1.050-0.078 0.105-0.151 0.216-0.213 0.33-0.118 0.222-0.056 0.506 0.168 0.636 0.213 0.124 0.523 0.057 0.642-0.166z"></path>
<path fill="none" stroke="#000" style="stroke: var(--color2, #000)" stroke-linejoin="miter" stroke-linecap="butt" stroke-miterlimit="10" stroke-width="0.5333" d="M14.163 18.362l-4.834-0.155"></path>
<path fill="none" stroke="#000" style="stroke: var(--color2, #000)" stroke-linejoin="miter" stroke-linecap="butt" stroke-miterlimit="10" stroke-width="0.5333" d="M14.243 20.022l-4.197 0.621"></path>
<path fill="none" stroke="#000" style="stroke: var(--color2, #000)" stroke-linejoin="miter" stroke-linecap="butt" stroke-miterlimit="10" stroke-width="0.5333" d="M26.898 17.646l4.835-0.155"></path>
<path fill="none" stroke="#000" style="stroke: var(--color2, #000)" stroke-linejoin="miter" stroke-linecap="butt" stroke-miterlimit="10" stroke-width="0.5333" d="M26.82 19.3l4.197 0.619"></path>
<path fill="none" stroke="#000" style="stroke: var(--color2, #000)" stroke-linejoin="miter" stroke-linecap="butt" stroke-miterlimit="10" stroke-width="0.5333" d="M19.982 19.514c0 0 2.339 3.224 4.317-0.059"></path>
<path fill="none" stroke="#000" style="stroke: var(--color2, #000)" stroke-linejoin="miter" stroke-linecap="butt" stroke-miterlimit="10" stroke-width="0.5333" d="M22.16 17.105v3.641"></path>
<path fill="#000" style="fill: var(--color2, #000)" d="M22.118 17.269c0.979 0 1.773-0.557 1.773-1.244s-0.794-1.244-1.773-1.244c-0.979 0-1.773 0.557-1.773 1.244s0.794 1.244 1.773 1.244z"></path>
<path fill="#000" style="fill: var(--color2, #000); stroke: var(--color2, #000)" stroke="#000" stroke-linejoin="miter" stroke-linecap="butt" stroke-miterlimit="10" stroke-width="0.5333" d="M6.587 15.508c1.572-1.621-3.453-5.024-3.823-5.169-0.016-0.006-1.429 6.361-1.356 10.195 0.017 0.895 0.187 1.827 0.187 1.827 0.294 0.261 0.487 1.1 2.69 0.028 1.232-0.6 1.475-1.823 0.354-2.059-2.158-0.451 0.006-0.932-0.347-1.786-0.893-2.153 0.643-1.331 2.297-3.036z"></path>
<path fill="#000" style="fill: var(--color2, #000); stroke: var(--color2, #000)" stroke="#000" stroke-linejoin="miter" stroke-linecap="butt" stroke-miterlimit="10" stroke-width="0.5333" d="M27.935 21.832c0.182-1.907 1.972-1.369 1.972-1.369 0.595 3.481-1.487 5.845-2.989 6.672-0.365 0-0.714-2.128 0.106-2.399s0.729-0.998 0.911-2.904z"></path>
</symbol>
</defs>
</svg>
